<?xml version="1.0" encoding="utf-8"?>
<!-- Generator: Adobe Illustrator 22.0.1, SVG Export Plug-In . SVG Version: 6.00 Build 0)  -->
<svg version="1.1" id="Layer_1" xmlns="http://www.w3.org/2000/svg" xmlns:xlink="http://www.w3.org/1999/xlink" x="0px" y="0px"
	 viewBox="0 0 493.6 249.2" style="enable-background:new 0 0 493.6 249.2;" xml:space="preserve">
<g>
	<path d="M52.8,194.5v-35c8,0,12-3.1,12-9.2c0-5.6-3.1-8.4-9.2-8.4c-6.2,0-9.3,3.8-9.3,11.5v87.1H6.7v-83c0-8.6,0.9-15.6,2.6-21.1
		c1.7-5.5,4.7-10.6,8.8-15.4c4.7-5.3,10.5-9.4,17.6-12.5c7-3.1,14.3-4.6,21.8-4.6c13.5,0,24.9,4.6,34.1,13.7
		c9.2,9.1,13.8,20.4,13.8,33.9c0,13.1-4.1,23.7-12.4,31.8c-7.6,7.5-18.9,11.2-34.2,11.2L52.8,194.5z"/>
	<path d="M170.2,173.7v35.2h-11.4v31.7h-39.6v-84.8c0-16.4,4.5-29.2,13.4-38.2c9-9.1,21.5-13.6,37.7-13.6c15.6,0,27.2,4.1,34.7,12.4
		c7.5,8.2,11.2,20.9,11.2,38.1v86.1h-39.6v-83.5c0-5.2-0.6-8.8-1.9-10.8c-1.2-2-3.5-3-6.6-3c-6.2,0-9.3,4.6-9.3,13.9v16.6H170.2z"/>
	<path d="M279.8,143.1v97.5h-39.6V107.3h50.9c15.5,0,27.5,3.8,36,11.5c9.5,8.6,14.3,19.5,14.3,32.7c0,13.5-5.9,24.8-17.7,34.1
		l22.9,55h-41.6l-19.2-43v-34.3h3.1c8.3,0,12.5-3.6,12.5-10.7c0-6.3-4.8-9.5-14.5-9.5H279.8z"/>
	<path d="M399.5,107.3v133.3h-39.6V107.3H399.5z"/>
	<path d="M488.7,106.7v38c-2.9-1-5.1-1.5-6.6-1.5c-3,0-5.6,1.1-7.7,3.3c-2.1,2.2-3.2,4.9-3.2,8c0,2.7,1.2,6.1,3.5,10.2l3,5.3
		c5.5,9.5,8.2,18.7,8.2,27.5c0,13-4.6,23.9-13.8,32.9c-9.2,9-20.5,13.5-33.7,13.5c-6.4,0-12.7-1.5-18.9-4.4v-38.6
		c3.8,2.4,7.1,3.6,10.1,3.6c3.5,0,6.3-1,8.6-3c2.3-2,3.5-4.5,3.5-7.5c0-2-1.9-6.2-5.6-12.8c-5.9-10.4-8.9-20.8-8.9-31.3
		c0-12.6,4.5-23.4,13.4-32.5c9-9.1,19.6-13.6,32.1-13.6C478.1,103.9,483.4,104.9,488.7,106.7z"/>
</g>
<g>
	<path d="M10.4,67.9c-2.6-1.6-4.6-4-6-7.1c-1.4-3.1-2.1-6.8-2.1-11.1V38.6c0-4.4,0.7-8.1,2-11.2c1.3-3.1,3.3-5.4,5.8-7.1
		c2.6-1.6,5.6-2.4,9.2-2.4c3,0,5.7,0.8,8.2,2.3s4.5,3.8,6,6.6l-1,10.4c0-2.1-0.4-4-1.2-5.5c-0.8-1.5-1.9-2.7-3.4-3.5
		c-1.5-0.8-3.3-1.2-5.4-1.2c-3.3,0-5.8,1-7.6,3.1s-2.7,4.9-2.7,8.6v11c0,3.7,0.9,6.5,2.7,8.5s4.4,3,7.6,3c2.1,0,3.9-0.4,5.4-1.2
		c1.5-0.8,2.6-2,3.4-3.6c0.8-1.6,1.2-3.4,1.2-5.6l0.7,10.7c-1,2.5-2.7,4.6-5,6.3s-5.1,2.5-8.5,2.5C16.2,70.4,13,69.5,10.4,67.9z
		 M15.1,90.1c0,0-1.5-0.7-4.5-2.1c-3-1.4-5.3-3.4-7-6l6.7-6.1c1.3,1.8,2.9,3.2,4.7,4.2s3.7,1.5,5.7,1.5c3.8,0,6.8-1,8.8-3.1
		c2.1-2.1,3.1-5.1,3.1-8.9V18.8h10V68c0,4.7-0.9,8.6-2.6,12s-4.2,5.8-7.4,7.6c-3.3,1.7-7.2,2.6-11.8,2.6
		C17,90.1,15.1,90.1,15.1,90.1z"/>
	<path d="M65.9,67.6c-3.1-1.7-5.5-4.2-7.2-7.5c-1.6-3.3-2.5-7.3-2.5-11.9v-8.3c0-4.6,0.8-8.5,2.5-11.8c1.6-3.3,4-5.8,7.2-7.5
		c3.1-1.7,6.9-2.6,11.3-2.6s8.2,0.9,11.3,2.6s5.5,4.2,7.2,7.5c1.6,3.3,2.5,7.2,2.5,11.8v8.4c0,4.6-0.8,8.6-2.5,11.8
		c-1.6,3.3-4,5.8-7.2,7.5c-3.1,1.7-6.9,2.6-11.3,2.6S69,69.3,65.9,67.6z M85.3,57.5c1.9-2.2,2.9-5.2,2.9-9.2v-8.4c0-3.9-1-7-2.9-9.1
		s-4.6-3.2-8.1-3.2c-3.5,0-6.2,1.1-8.1,3.2s-2.9,5.2-2.9,9.1v8.4c0,3.9,1,7,2.9,9.2c1.9,2.2,4.6,3.3,8.1,3.3
		C80.7,60.7,83.4,59.6,85.3,57.5z"/>
	<path d="M125.4,18.8h22.9v9h-22.9V18.8z M133.5,66.3c-1.9-2.3-2.9-5.6-2.9-10V4h10v52.3c0,1.2,0.2,2.2,0.7,2.9c0.5,0.7,1.2,1,2.1,1
		h4.8v9.5h-5.8C138.4,69.7,135.4,68.6,133.5,66.3z"/>
	<path d="M170.1,67.6c-3.1-1.7-5.5-4.2-7.2-7.5c-1.6-3.3-2.5-7.3-2.5-11.9v-8.3c0-4.6,0.8-8.5,2.5-11.8c1.6-3.3,4-5.8,7.2-7.5
		s6.9-2.6,11.3-2.6s8.2,0.9,11.3,2.6s5.5,4.2,7.2,7.5c1.6,3.3,2.5,7.2,2.5,11.8v8.4c0,4.6-0.8,8.6-2.5,11.8c-1.6,3.3-4,5.8-7.2,7.5
		c-3.1,1.7-6.9,2.6-11.3,2.6S173.2,69.3,170.1,67.6z M189.5,57.5c1.9-2.2,2.9-5.2,2.9-9.2v-8.4c0-3.9-1-7-2.9-9.1s-4.6-3.2-8.1-3.2
		c-3.5,0-6.2,1.1-8.1,3.2s-2.9,5.2-2.9,9.1v8.4c0,3.9,1,7,2.9,9.2c1.9,2.2,4.6,3.3,8.1,3.3C184.9,60.7,187.6,59.6,189.5,57.5z"/>
</g>
</svg>
